HIERARCHY
ROOT Hips
{
	OFFSET -131.695496 91.669037 -190.067505
	CHANNELS 6 Xposition Yposition Zposition Zrotation Yrotation Xrotation 
	JOINT RightUpLeg
	{
		OFFSET 0.103456 1.857829 10.548507
		CHANNELS 3 Xrotation Yrotation Zrotation
		JOINT RightLeg
		{
			OFFSET 43.500000 -0.000031 0.000008
			CHANNELS 3 Xrotation Yrotation Zrotation
			JOINT RightFoot
			{
				OFFSET 42.372200 0.000015 -0.000002
				CHANNELS 3 Xrotation Yrotation Zrotation
				JOINT RightToe
				{
					OFFSET 17.299992 -0.000004 0.000000
					CHANNELS 3 Xrotation Yrotation Zrotation
					End Site
					{
						OFFSET 0.000000 0.000000 0.000000
					}
				}
			}
		}
	}
	JOINT LeftUpLeg
	{
		OFFSET 0.103460 1.857824 -10.548508
		CHANNELS 3 Xrotation Yrotation Zrotation
		JOINT LeftLeg
		{
			OFFSET 43.500042 -0.000019 0.000004
			CHANNELS 3 Xrotation Yrotation Zrotation
			JOINT LeftFoot
			{
				OFFSET 42.372265 -0.000019 0.000016
				CHANNELS 3 Xrotation Yrotation Zrotation
				JOINT LeftToe
				{
					OFFSET 17.299999 -0.000001 -0.000006
					CHANNELS 3 Xrotation Yrotation Zrotation
					End Site
					{
						OFFSET 0.000000 0.000000 0.000000
					}
				}
			}
		}
	}
	JOINT Spine
	{
		OFFSET 6.901965 -2.603734 0.000001
		CHANNELS 3 Xrotation Yrotation Zrotation
		JOINT Spine1
		{
			OFFSET 12.588102 0.000006 -0.000006
			CHANNELS 3 Xrotation Yrotation Zrotation
			JOINT Spine2
			{
				OFFSET 12.343201 -0.000002 0.000010
				CHANNELS 3 Xrotation Yrotation Zrotation
				JOINT Neck
				{
					OFFSET 25.832899 -0.000004 -0.000009
					CHANNELS 3 Xrotation Yrotation Zrotation
					JOINT Head
					{
						OFFSET 11.766603 0.000001 0.000007
						CHANNELS 3 Xrotation Yrotation Zrotation
						End Site
						{
							OFFSET 0.000000 0.000000 0.000000
						}
					}
				}
				JOINT RightShoulder
				{
					OFFSET 19.745899 -1.480371 6.000098
					CHANNELS 3 Xrotation Yrotation Zrotation
					JOINT RightArm
					{
						OFFSET 11.284129 -0.000011 -0.000015
						CHANNELS 3 Xrotation Yrotation Zrotation
						JOINT RightForeArm
						{
							OFFSET 33.000046 0.000011 0.000030
							CHANNELS 3 Xrotation Yrotation Zrotation
							JOINT RightHand
							{
								OFFSET 25.200010 0.000012 -0.000000
								CHANNELS 3 Xrotation Yrotation Zrotation
								End Site
								{
									OFFSET 0.000000 0.000000 0.000000
								}
							}
						}
					}
				}
				JOINT LeftShoulder
				{
					OFFSET 19.746092 -1.480375 -6.000075
					CHANNELS 3 Xrotation Yrotation Zrotation
					JOINT LeftArm
					{
						OFFSET 11.284135 -0.000010 -0.000014
						CHANNELS 3 Xrotation Yrotation Zrotation
						JOINT LeftForeArm
						{
							OFFSET 33.000092 0.000016 0.000013
							CHANNELS 3 Xrotation Yrotation Zrotation
							JOINT LeftHand
							{
								OFFSET 25.199780 0.000135 0.000426
								CHANNELS 3 Xrotation Yrotation Zrotation
								End Site
								{
									OFFSET 0.000000 0.000000 0.000000
								}
							}
						}
					}
				}
			}
		}
	}
}
MOTION
Frames: 7
Frame Time: 0.033333
-127.370102 90.289749 194.886993 91.766563 -5.985425 -94.432146 176.252444 -7.416117 170.928926 -28.698744 -0.009937 -8.680369 79.790687 4.108579 -8.535979 21.454558 0.003110 0.000017 174.728342 -1.452191 -179.570919 -26.254064 1.040665 4.970257 78.468396 -3.318419 0.870039 21.454553 -0.003086 -0.000002 8.605729 0.926605 -0.711979 7.188283 1.895547 -1.365335 6.870108 1.887133 -1.376765 4.529880 9.120951 2.318426 -13.907470 -8.652919 6.534954 -156.289714 -72.512266 -25.752533 -0.320369 63.904848 19.956230 -37.053752 -19.855599 1.725348 4.356347 -7.185791 15.854713 -159.312632 72.503776 22.689294 8.369469 -66.475602 -18.597096 -48.854659 19.518722 -2.014680 3.740737 2.781821 -32.159386 
-127.113098 89.882149 195.546402 91.673754 -5.765262 -94.813817 173.411167 -7.720699 171.246216 -32.895916 0.284354 -8.876997 79.292499 4.106014 -8.941127 21.454558 0.003101 0.000018 172.821900 -1.506602 -179.880873 -28.708019 1.261558 4.928531 79.265923 -3.351189 0.624551 21.454548 -0.003097 -0.000000 8.767538 0.985453 -0.813842 7.509596 2.021561 -1.562348 7.191426 2.011961 -1.574550 5.266501 9.432577 1.809769 -13.954590 -8.229126 5.854811 -156.502501 -72.666314 -25.530858 2.500635 64.342991 23.813769 -35.637919 -19.342990 1.657449 4.633322 -7.160526 15.879596 -158.271015 72.460186 23.760082 7.225677 -66.000862 -20.754501 -44.046107 19.265312 -1.849580 4.961637 3.564483 -29.780779 
-126.901497 89.377983 196.286407 91.654951 -5.486273 -95.185332 170.006878 -8.246303 171.697118 -37.827439 0.360041 -9.064890 78.301780 4.138184 -9.050690 21.454562 0.003101 0.000018 170.735536 -1.391103 -179.789553 -31.317442 1.746514 4.604093 80.142510 -3.249161 0.124008 21.454551 -0.003076 0.000001 8.933730 1.080301 -0.829472 7.840772 2.214260 -1.584228 7.522536 2.204505 -1.597562 5.605129 9.514912 1.102685 -13.555263 -7.446671 4.813454 -157.142121 -72.944706 -24.868736 4.205928 64.207371 27.248145 -34.159306 -18.605382 1.575246 4.900279 -6.242608 15.118024 -157.213934 72.551219 24.844198 4.565425 -65.024910 -21.352788 -38.403821 18.010358 -1.612535 6.897852 2.919200 -27.786927 
-126.773697 88.772552 197.111206 91.792360 -5.105389 -95.588463 166.113752 -8.944908 172.141449 -43.212032 0.374048 -9.296285 76.991279 4.335625 -8.567076 21.454555 0.003117 0.000016 168.478405 -1.250900 -179.088325 -33.988879 2.161524 3.916101 81.018188 -2.923919 -0.543104 21.454555 -0.003085 -0.000001 9.068965 1.236887 -0.766058 8.111117 2.524357 -1.443965 7.792804 2.515457 -1.459207 6.196077 9.375550 0.292124 -13.382311 -6.455933 3.568189 -158.366883 -73.264099 -23.606119 5.034252 63.662581 30.354146 -32.663952 -17.840717 1.492803 4.692975 -4.375622 14.197786 -157.537903 73.132994 24.500503 2.273250 -63.998162 -22.591684 -32.802786 16.735806 -1.398383 9.460295 1.076086 -25.913705 
-126.716103 88.273514 197.932007 91.957002 -4.823902 -96.126942 162.720460 -9.607300 172.116205 -47.795324 0.432682 -9.593075 75.652794 4.772170 -7.422860 21.454558 0.003111 0.000019 166.691258 -1.038192 -178.094765 -35.923650 2.443464 2.994502 81.554200 -2.460564 -1.329684 21.454555 -0.003097 -0.000002 9.230485 1.434840 -0.647962 8.435688 2.913056 -1.190050 8.117220 2.905676 -1.207641 6.445365 9.153968 -0.634440 -12.872185 -5.612531 2.254555 -158.616486 -73.346137 -23.348645 4.766330 62.903522 32.259168 -32.095295 -17.026992 1.428427 5.134932 -0.778988 14.197755 -158.553812 73.877102 23.445301 0.587379 -62.961736 -23.240332 -28.720546 15.491817 -1.237016 12.298663 -1.884995 -26.857310 
-126.706200 87.946892 198.721497 92.121487 -4.665135 -96.900789 160.222373 -10.303997 172.172198 -51.102109 0.076564 -9.943503 74.748477 5.230697 -6.539103 21.454562 0.003107 0.000018 165.467821 -0.869896 -177.629588 -36.966644 2.854537 2.225762 81.687191 -2.110716 -2.108284 21.454550 -0.003094 0.000000 9.399962 1.641619 -0.480526 8.778642 3.314941 -0.835487 8.459995 3.309678 -0.855522 6.643123 9.065544 -1.526549 -12.169824 -5.032277 1.081089 -158.464487 -73.411051 -23.503504 4.223089 62.348296 33.467490 -32.373563 -16.622763 1.408415 5.998696 3.235558 15.194587 -160.044337 74.423483 21.909382 -0.604783 -61.715260 -23.660943 -26.237939 14.734781 -1.145162 14.638620 -4.425897 -31.338602 
-126.784798 87.802010 199.501099 92.278383 -4.514089 -97.909662 158.759783 -10.850703 171.645495 -52.863239 0.041597 -10.026196 74.408566 5.489987 -5.784623 21.454563 0.003098 0.000019 164.599732 -0.967613 -177.936946 -37.209576 3.151638 1.812092 81.354499 -1.949368 -2.587686 21.454551 -0.003081 0.000001 9.517051 1.830446 -0.306146 9.018330 3.679145 -0.468933 8.699535 3.676102 -0.491182 7.362933 9.408524 -2.244077 -11.681013 -4.905114 0.251851 -158.625119 -73.656138 -23.334535 4.175531 62.287439 34.189400 -32.888105 -16.479725 1.410307 6.458834 6.016944 17.215545 -160.730525 74.805420 21.201297 -1.184059 -60.722438 -23.100384 -25.849940 14.603629 -1.130436 16.618448 -6.007250 -39.571637 
